<?xml version="1.0" standalone="no"?>
<!DOCTYPE svg PUBLIC "-//W3C//DTD SVG 20010904//EN"
 "http://www.w3.org/TR/2001/REC-SVG-20010904/DTD/svg10.dtd">
<svg version="1.0" xmlns="http://www.w3.org/2000/svg"
 width="260.000000pt" height="260.000000pt" viewBox="0 0 260.000000 260.000000"
 preserveAspectRatio="xMidYMid meet">
<metadata>
Created by potrace 1.14, written by Peter Selinger 2001-2017
</metadata>
<g transform="translate(0.000000,260.000000) scale(0.100000,-0.100000)"
fill="#000000" stroke="none">
<path d="M1295 2250 c-67 -10 -155 -49 -180 -79 -21 -26 -29 -58 -44 -181 -5
-41 -14 -88 -21 -105 -15 -39 -37 -119 -44 -170 -13 -81 -28 -116 -65 -152
-50 -50 -62 -59 -91 -66 -14 -3 -48 -28 -77 -54 -43 -40 -55 -59 -73 -118 -12
-41 -23 -108 -25 -160 -3 -49 -7 -122 -10 -161 -15 -198 -15 -206 3 -228 9
-11 24 -21 32 -21 8 0 38 -4 67 -8 l51 -9 7 -51 c16 -124 -3 -223 -103 -554
l-40 -133 38 0 c27 0 40 5 45 18 6 16 7 16 16 0 9 -17 47 -18 574 -18 469 0
565 2 565 14 0 20 -59 222 -85 291 -38 100 -75 276 -75 353 l0 72 68 0 c39 0
76 -5 85 -13 22 -15 51 -169 66 -347 14 -160 30 -307 37 -343 5 -26 8 -27 67
-27 l62 1 -35 19 c-19 11 -31 19 -26 20 6 0 2 6 -9 14 -12 8 -16 20 -12 35 3
11 1 21 -4 21 -5 0 -9 17 -9 38 0 54 -26 227 -57 385 -25 132 -26 138 -8 151
13 9 16 22 13 44 -2 17 -1 29 3 26 5 -2 15 9 24 26 16 31 23 31 59 1 16 -13
18 -13 14 -1 -2 8 -24 28 -49 46 l-44 31 -1 74 c0 45 -7 86 -16 104 -8 17 -18
57 -21 90 -15 149 -105 379 -152 391 -13 3 -36 24 -51 45 -15 22 -32 43 -38
47 -16 10 -47 82 -36 82 10 0 -7 38 -21 50 -4 3 -9 16 -13 30 -4 14 -21 57
-36 95 -16 39 -39 102 -50 140 -23 80 -81 170 -131 202 -19 13 -39 27 -45 32
-18 15 -47 18 -99 11z m99 -106 c20 -8 76 -90 76 -112 0 -9 7 -35 15 -57 8
-22 14 -57 15 -77 1 -83 -46 -211 -85 -232 -10 -6 -25 -16 -32 -23 -19 -17
-69 -26 -105 -18 -76 16 -148 98 -148 168 0 15 -4 27 -10 27 -16 0 -31 38 -35
93 l-5 52 25 -70 c24 -66 25 -68 21 -26 -3 27 3 69 14 105 10 34 21 72 25 86
10 43 60 73 134 80 36 4 69 8 73 9 3 0 13 -2 22 -5z m60 -612 c4 -8 17 -11 28
-9 19 5 39 1 112 -26 37 -14 38 -15 18 -26 -32 -17 -146 -31 -262 -31 l-105 0
-3 83 -3 83 68 -4 c37 -2 79 1 93 6 23 9 26 7 35 -27 6 -20 14 -42 19 -49z"/>
<path d="M1155 1970 c-4 -6 11 -10 37 -9 33 0 38 2 23 9 -28 12 -53 12 -60 0z"/>
<path d="M1405 1970 c-15 -6 -8 -9 28 -9 30 -1 46 3 42 9 -7 12 -42 12 -70 0z"/>
<path d="M1176 1931 c-3 -5 18 -8 48 -8 30 1 52 5 50 9 -7 11 -92 10 -98 -1z"/>
<path d="M1354 1925 c-18 -14 -17 -14 10 -5 20 7 32 7 42 -1 11 -9 14 -9 14 0
0 7 10 9 28 5 21 -4 24 -3 12 5 -22 16 -83 13 -106 -4z"/>
<path d="M1325 1790 c-3 -6 1 -7 9 -4 18 7 21 14 7 14 -6 0 -13 -4 -16 -10z"/>
<path d="M1338 1743 c7 -3 16 -2 19 1 4 3 -2 6 -13 5 -11 0 -14 -3 -6 -6z"/>
<path d="M1378 1743 c6 -2 18 -2 25 0 6 3 1 5 -13 5 -14 0 -19 -2 -12 -5z"/>
</g>
</svg>
